# xmcd
#
# Track frame offsets:
#	150
#	8345
#	19887
#	25585
#	34112
#	42097
#	48182
#	53862
#	62647
#	75462
#	79835
#	87857
#	100575
#	109955
#	115452
#	130307
#
# Disc length: 1853 seconds
#
# Revision: 0
# Processed by: cddbd v1.5.1PL0 Copyright (c) Steve Scherf et al.
# Submitted via: audiograbber 1.81.02
#
DISCID=b9073b10
DTITLE=Tim Thomas - Olaf Franke - Mit Freddy durch die Bibel 10 - Besuch für Ma
DTITLE=ria (www.gerth.de)
DYEAR=2005
DGENRE=Musical
TTITLE0=Eugen will was wissen
TTITLE1=Bibelsuch-Song
TTITLE2=Verlobungstanz
TTITLE3=Marias Walzer
TTITLE4=Marias Walzer - reprise
TTITLE5=Gabriel kommt vorbei
TTITLE6=Gabriels Gruß
TTITLE7=Maria wundert sich
TTITLE8=Josefs Liebeslied
TTITLE9=Josef zweifelt
TTITLE10=Eugens Gruß
TTITLE11=Gabriel kündigt den Messias an
TTITLE12=Eine Volkszählung muss her
TTITLE13=O Bethlehem, du kleine Stadt
TTITLE14=Ein Kind ist geboren
TTITLE15=Weihnachtslied: Go Tell It On The Mountain
EXTD=
EXTT0=
EXTT1=
EXTT2=
EXTT3=
EXTT4=
EXTT5=
EXTT6=
EXTT7=
EXTT8=
EXTT9=
EXTT10=
EXTT11=
EXTT12=
EXTT13=
EXTT14=
EXTT15=
PLAYORDER=
